PathFileType	4	(X/Y/Z)	24_1_44_p0_0-281.trc
DataRate	CameraRate	NumFrames	NumMarkers	Units	OrigDataRate	OrigDataStartFrame	OrigNumFrames
56.0	56.0	4	27	m	56.0	0	282
Frame#	Time	RHip			RKnee			RAnkle			RBigToe			RSmallToe			RHeel			LHip			LKnee			LAnkle			LBigToe			LSmallToe			LHeel			Neck			Head			Nose			RShoulder			RElbow			RWrist			RThumb			RIndex			RPinky			LShoulder			LElbow			LWrist			LThumb			LIndex			LPinky			
		X1	Y1	Z1	X2	Y2	Z2	X3	Y3	Z3	X4	Y4	Z4	X5	Y5	Z5	X6	Y6	Z6	X7	Y7	Z7	X8	Y8	Z8	X9	Y9	Z9	X10	Y10	Z10	X11	Y11	Z11	X12	Y12	Z12	X13	Y13	Z13	X14	Y14	Z14	X15	Y15	Z15	X16	Y16	Z16	X17	Y17	Z17	X18	Y18	Z18	X19	Y19	Z19	X20	Y20	Z20	X21	Y21	Z21	X22	Y22	Z22	X23	Y23	Z23	X24	Y24	Z24	X25	Y25	Z25	X26	Y26	Z26	X27	Y27	Z27	
0	0.0	0.45680927196759435	0.5441456018860488	0.8357662188719914	0.4580405176736188	0.6278281397404627	1.2877028436675704	0.43659233736128833	0.6970095590317893	1.6882135643809428	0.40559300513536006	0.5316934488978325	1.7132954157983058	0.4644622156136945	0.5218208711717089	1.6944736839664942	0.4292739557188611	0.7535649094931227	1.744251005285918	0.27147015791893164	0.4962203152060632	0.8389630514463825	0.24790595769927656	0.5836799193064742	1.2567857216711051	0.2269221674211104	0.6861092528392094	1.6848067002130893	0.2375291106890272	0.4937249270779727	1.6927854843047088	0.183392484710625	0.5362964859607355	1.7021646667229906	0.2424345372950759	0.7472997128358735	1.7302410044546503	0.3592562552353376	0.4185248868292572	0.34908506622095026	0.3553159535727109	0.36369782229115344	0.10902633645574453	0.37379026904772544	0.2969215923479948	0.225874972084504	0.5163122240735257	0.43390435778174635	0.43668678851368203	0.5392073501901524	0.48953163538140443	0.6938501087544364	0.4524346824672	0.3917216991414074	0.879314014991261	0.3310425209769899	0.37603990360029427	0.94745420667451	0.3355957282699392	0.3803761662345769	0.968257958392472	0.38395776646799634	0.4725385009680763	1.0027873455150136	0.20922197376015636	0.4542658828653277	0.45204815826795536	0.18217454921090767	0.4243462904720441	0.6758640452900957	0.29598087277322344	0.4141666978325331	0.8699989566883646	0.34841020530241035	0.3801410028002657	0.9332613645292164	0.35697701432663365	0.38428813929104894	0.955567742475634	0.3546407211531171	0.41032916137075753	0.9660195517360542
1	0.017857142857142856	0.4563023176821143	0.5449823118056795	0.8397697571501089	0.457190379915971	0.6293227128969241	1.2919521833252954	0.4375198925725406	0.6967404907716125	1.6826992977279651	0.40128026843933007	0.5458296858187721	1.7166781101691624	0.4613428460758644	0.5511214117727068	1.7086080899195186	0.4176693859876778	0.7664931166840664	1.7457980059882876	0.27012004363577796	0.4960971160740881	0.8348682057161221	0.247522709605567	0.5869743112065423	1.2663729600487315	0.22772548533866682	0.689057733616247	1.6902994167721588	0.23889147497758162	0.4960830055445702	1.6934485179923389	0.18014233182035036	0.547589463806355	1.7074885959697763	0.248899757131742	0.7663676478735374	1.7380784914245955	0.35950027144030444	0.4181505780612756	0.34567587207107703	0.3571626159110539	0.3743822857949567	0.10856936600738455	0.37363372346830026	0.29743450417202055	0.22566614569270088	0.5138076467629028	0.42169954702069684	0.43621392883308996	0.5345624508040212	0.5041565606174238	0.6962999116253025	0.4547130787407375	0.4034725109538683	0.8815249118005392	0.33114795738676095	0.3760484074669954	0.9472431656987956	0.3351965144750253	0.37829069716054725	0.9637890603458413	0.3790802325679069	0.468677053692338	1.0025895829491545	0.2095773044743622	0.4536719130360874	0.44876523273953933	0.17972326257821378	0.41347019931449003	0.6705319578333229	0.29150784535977114	0.4136969103617116	0.8660726028485245	0.3456004700753605	0.3689542029897137	0.9274067557626943	0.35712469998196206	0.3840758553080031	0.9553568748696657	0.3542921414700777	0.4119559597194197	0.9632767659377239
2	0.03571428571428571	0.4558784308331616	0.5459111437913197	0.8361163430302972	0.45717699592714056	0.6292626807674602	1.2921470474889678	0.43755495291637325	0.6970434185487131	1.682535390202592	0.40020263380631904	0.546895823765089	1.721206958976665	0.46058433462874443	0.5484465100873155	1.7031133763914612	0.4162596856496593	0.7653909364431521	1.736528152133361	0.27011725416564564	0.49617824304177865	0.8348797039541653	0.24689609142970284	0.588681178023596	1.2624884486490016	0.22714841410979356	0.6861688663093775	1.6847717399736246	0.2388806637182203	0.4960026746543768	1.6934486040562136	0.18335687026488717	0.5364582993998519	1.7021713951116832	0.2489144085345308	0.7661172104291014	1.737863544961666	0.3592640803717386	0.4184482006908191	0.3490794255822516	0.35524710689939626	0.3639955515822109	0.10929051516187772	0.3755530447166218	0.3080917453333634	0.22549824287797837	0.5091675616520887	0.4345597537722948	0.4372272982376349	0.5391529640530676	0.4899694770673095	0.693909071492559	0.45475957496333885	0.40345685675407644	0.8814517865433256	0.3346143094642435	0.37696904655208113	0.9469641982577162	0.33485311450583777	0.37941966866613763	0.9603783880874265	0.37912145255538754	0.46883782199127316	0.9947819834482924	0.20487834142930872	0.4529706929413181	0.44835753851519283	0.17944214312826648	0.4136982430332221	0.6705213359689713	0.29152896869918743	0.4137490230805808	0.8660904985863473	0.3550737625209933	0.38360456664884957	0.9329387703467834	0.3615466071234297	0.386563036064692	0.9560498279662103	0.3545099580575484	0.41185460612457825	0.9633090596294707
3	0.05357142857142857	0.45539903653809394	0.5464708927507409	0.8400955110140876	0.4572568578707319	0.6292239833171337	1.292188468200611	0.43761494426641084	0.6968565206007259	1.6824576419271566	0.401264163937888	0.5456592617408011	1.716696556248384	0.4606581658636291	0.5481443359959661	1.7029915023543465	0.4278903063150876	0.7492098646794404	1.723628010686679	0.26913657196870416	0.4948726264443552	0.8349164462843989	0.24645115008048146	0.5862544737620747	1.2571526217689046	0.2272096307476096	0.6862400202731891	1.6847095044485505	0.2389062886750078	0.49593927849382563	1.6934265282240368	0.18447881055344328	0.5356911413560081	1.6977871266004188	0.24904641179918038	0.7661786992378868	1.737807437793091	0.3592447614922112	0.41846613741412636	0.3491116987691296	0.35524488564118045	0.36392890187650656	0.10929450318469962	0.36865068870474227	0.309293112571771	0.22566125110241095	0.5091141950558522	0.4348296083205836	0.4372766180191313	0.5346346433508856	0.5040744235550909	0.6962867519911896	0.45476653094117575	0.40373909865087376	0.8814546423330756	0.33447627453328665	0.3772047827397938	0.9470968671979729	0.3388181026400064	0.3807743241933439	0.9638742377223266	0.3828974141806084	0.4717670906372267	0.9954518129960351	0.20511866572493395	0.45205314142180475	0.4521741293683033	0.18069842161620178	0.4268018392324476	0.6684867559109874	0.28579414764699856	0.4265274294272988	0.8690296083841818	0.3518222616564028	0.3823185161512021	0.9329216666477329	0.3637769276564073	0.3995281390298329	0.959147704539083	0.35445569584548775	0.4122502874366541	0.9634286936021839
